<svg id="Layer_1" data-name="Layer 1" xmlns="http://www.w3.org/2000/svg" viewBox="0 0 455.56 455.56"><defs><style>.cls-1{fill:#a51e22;}.cls-2{fill:none;stroke:#fff;stroke-linecap:round;stroke-linejoin:round;stroke-width:10px;}</style></defs><circle class="cls-1" cx="227.78" cy="227.78" r="227.78"/><g id="ic-contact-chat"><path class="cls-2" d="M623,521.61H772.27a29.86,29.86,0,0,1,29.86,29.86V641a29.86,29.86,0,0,1-29.86,29.86H727.49L682.7,715.69,637.91,670.9H623A29.86,29.86,0,0,1,593.13,641V551.47A29.86,29.86,0,0,1,623,521.61Z" transform="translate(-514.64 -428.19)"/><path class="cls-2" d="M802.13,596.26h59.72a29.84,29.84,0,0,1,29.85,29.85v89.58a29.84,29.84,0,0,1-29.85,29.85H832l-29.86,44.79-44.79-44.79H712.56a29.85,29.85,0,0,1-29.86-29.85h0" transform="translate(-514.64 -428.19)"/></g></svg>